<svg xmlns="http://www.w3.org/2000/svg" viewBox="0 0 1024 1024" xml:space="preserve"><path fill="#8300FF" d="M345 122h359.967c0 8.892 2.399 19.504-.706 28.136-2.837 7.887-1.753 15.043-2.063 22.412-.651 15.471-.288 30.99-.18 46.487.28 40.428.577 80.856 1.04 121.282.1 8.736.924 17.464 1.429 26.438h4.038L794.82 122c4.969 0 10.432.07 15.892-.013 19.93-.301 39.86-.622 59.788-.998 14.93-.281 29.864-.531 44.788-1.026 15.366-.509 30.721-1.303 46.082-1.954 1.648-.07 3.301-.009 4.572-.009 0 12.089.725 23.995-.317 35.746-.494 5.573-3.602 11.388-6.945 16.083-2.589 3.635-2.455 8.79-5.049 11.025-4.354 3.753-2.686 9.801-7.303 13.434-2.714 2.136-2.813 7.475-4.35 11.266-1.185 2.922-2.933 5.613-4.155 8.522-2.058 4.897-3.64 10.009-5.907 14.8-2.007 4.237-4.809 8.091-6.99 12.256-.911 1.742-.938 3.926-1.693 5.776-1.99 4.876-3.958 9.78-6.315 14.482-2.231 4.45-5.03 8.612-7.4 12.999-.727 1.348-.691 3.088-1.296 4.526-2.686 6.377-4.607 13.322-8.507 18.864-3.065 4.355-2.186 10.51-7.208 13.736-.777.5-.04 2.96-.629 4.221-1.785 3.828-4.023 7.444-5.81 11.27-2.172 4.65-3.144 10.213-6.324 13.94-3.564 4.178-2.247 10.498-7.328 13.741-1.13.722-.742 3.569-1.425 5.29-1.896 4.772-3.745 9.59-6.073 14.154-2.122 4.163-4.984 7.942-7.25 12.04-1.167 2.11-1.729 4.554-2.594 6.836-2.365 6.24-4.436 12.617-7.209 18.671-2.75 6.004-6.48 11.557-9.277 17.542-2.255 4.822-3.426 10.153-5.7 14.964-1.99 4.212-4.99 7.935-7.252 12.036-.947 1.716-.969 3.917-1.706 5.78-1.892 4.781-3.855 9.54-5.981 14.221-1.066 2.347-2.918 4.373-3.773 6.773-1.936 5.431-4.14 10.916-4.88 16.557-.346 2.636 2.571 5.635 3.783 8.563.763 1.845.86 3.976 1.683 5.784 3.002 6.583 6.58 12.944 9.82 19.352 2.162 4.28 2.852 9.502 6.748 13.454 3.147 3.192 3.62 8.892 5.753 13.247 2.061 4.208 4.875 8.042 7.056 12.198.85 1.621.51 3.862 1.342 5.5 3.35 6.58 6.763 13.17 10.102 19.691 2.189 4.275 2.107 10.205 7.001 13.288 1.113.7 1.244 2.955 1.832 4.492 1.206 3.153 2.105 6.472 3.7 9.414 2.233 4.123 5.069 7.916 7.478 11.95 1 1.676 2.113 3.578 2.223 5.434.366 6.143 5.587 9.745 7.428 15.109 1.619 4.718 2.927 9.984 5.998 13.646 3.517 4.194 2.556 9.998 7.037 13.895 3.019 2.625 3.849 7.761 5.679 11.765 1.324 2.895 2.706 5.763 4.019 8.663 1.371 3.03 1.952 6.884 4.193 8.952 4.153 3.832 2.776 10.251 7.415 13.666 1.114.82 1.23 2.977 1.837 4.507 1.855 4.673 3.533 9.43 5.665 13.975 1.175 2.504 3.307 4.544 4.663 6.984 1.003 1.803 1.355 3.955 2.163 5.883 1.981 4.73 3.837 9.533 6.162 14.093 2.127 4.169 4.93 7.988 7.193 12.094 1.468 2.66 2.388 5.616 3.765 8.333 1.357 2.676 3.006 5.202 4.466 7.827.302.543.378 1.228.488 1.86.676 3.908 4.316 10.475 7.317 14.04 1.108 1.317 1.491 3.256 2.159 4.93 1.863 4.672 2.726 10.181 5.806 13.817 3.548 4.189 2.977 9.839 7.084 13.93 2.297 2.288 4.504 6.742 3.884 11.724-.917 7.383-.237 14.966-.237 22.82-2.747.531-5.572 1.284-3.64 5.569-2.423 0-4.058-.02-5.692.003-22.763.329-45.525.645-68.287 1.003-19.43.306-38.86.636-58.288 1.002-15.597.294-31.192.702-46.79.972-6.807.118-9.713-2.572-11.37-8.806-1.971-7.407-4.66-14.62-6.78-21.992-1.302-4.532-1.933-9.255-3.21-13.796-1.282-4.56-3.184-8.948-4.469-13.508-1.987-7.052-3.335-14.299-5.581-21.26-3.317-10.277-7.346-20.322-10.741-30.575-1.476-4.457-1.86-9.268-3.219-13.773-2.027-6.721-4.575-13.284-6.694-19.98-.73-2.307-.552-4.903-1.29-7.207-1.65-5.152-3.696-10.177-5.41-15.31-.715-2.138-.83-4.472-1.504-6.627-2.923-9.358-5.996-18.67-8.92-28.027-1.115-3.573-1.95-7.233-2.961-10.84-1.365-4.873-2.851-9.713-4.148-14.603-2.087-7.87-3.866-15.826-6.15-23.636-1.69-5.772-3.978-11.368-6.237-17.71h-4.767l2.372 263.152c-7.69 6.522-16.355 4.344-24.574 4.464-13.663.2-27.33.107-40.996.045-69.424-.314-138.849-.653-208.273-.992-66.759-.327-133.517-.61-200.275-1.03-22.597-.142-45.191-.64-67.787-.986-.629-.01-1.256-.138-2.088-.235v-30.462c6.89.684 7.584-5.086 9.848-9.516 1.444-2.825 3.654-5.249 5.277-7.996 1.395-2.361 2.33-4.99 3.671-7.387 2.357-4.216 4.982-8.284 7.272-12.534 1.444-2.681 2.428-5.607 3.72-8.376 1.162-2.488 2.357-4.972 3.725-7.35 2.339-4.066 4.838-8.038 7.243-12.066 1.862-3.118 3.768-6.214 5.494-9.406 1.305-2.414 2.199-5.056 3.567-7.428 1.463-2.534 3.282-4.86 4.912-7.3a9.7 9.7 0 0 0 1.02-1.966c1.915-5.134 3.243-10.425 7.498-14.535 1.922-1.857 2.171-5.338 3.612-7.832 1.386-2.398 3.536-4.35 4.966-6.728 1.138-1.893 1.6-4.179 2.536-6.21 2.104-4.57 4.052-9.24 6.557-13.584 2.51-4.354 5.708-8.306 8.42-12.552 1.043-1.635 1.736-3.546 2.315-5.416 1.716-5.546 5.055-10.034 8.557-14.56 1.8-2.327 2.207-5.682 3.614-8.38 2.175-4.17 4.636-8.193 7.04-12.24 1.08-1.817 2.513-3.446 3.429-5.334 1.33-2.743 2.275-5.67 3.504-8.467.918-2.086 1.679-4.386 3.118-6.07 3.869-4.53 6.017-9.762 8.36-15.166 1.556-3.589 3.81-7.197 5.728-10.837 2.196-4.167 5.672-7.642 8.362-11.575 1.088-1.591 1.928-3.537 2.258-5.43 1.087-6.237 5.128-10.67 8.64-15.534 1.741-2.413 1.625-6.787 3.735-8.188 4.948-3.288 3.144-9.53 7.376-13.336 3.335-3 3.733-9.037 6.63-12.807 3.864-5.026 5.511-10.845 8.242-16.225 2.562-5.05 5.887-9.923 8.847-14.908 3.06-5.155 5.6-10.356 7.943-15.844 1.818-4.259 6.57-7.373 7.986-11.666 1.427-4.325 5.652-8.2 3.691-13.393-.913-2.418-2.218-4.717-3.579-6.927-.927-1.505-2.26-2.76-3.907-3.969l-12.48-20.338-.52.329-12.49-20.337-.382.282-22.872-33.953-.189.087-12.912-21.081c-3.071-1.65-4.2-5.595-5.924-9.44-1.579-3.52-4.522-6.43-7.899-11.013-2.212-1.234-3.402-5.13-5.111-8.993-1.564-3.534-4.528-6.449-7.06-9.526l-12.703-19.197-.401.235-12.915-21.054c-2.977-1.743-4.242-5.577-5.932-9.464-1.534-3.53-4.51-6.435-7.902-11.045-2.124-1.258-3.428-5.06-5.107-8.962-1.524-3.543-4.517-6.453-6.997-9.56l-12.63-19.241-.523.308-12.5-20.332-.507.324-12.498-20.332-.512.327-12.934-21.068c-3.159-1.588-4.157-5.632-5.9-9.452-1.603-3.517-4.518-6.437-6.28-10.005l-8.193-6.276V122zm46.622 308.958c.446.052.891.105 1.415.606 0 0 .13.436.02 1.19.037.76.073 1.52.149 2.723.165.302.417.42 1.416.48.446.053.891.106 1.415.607 0 0 .13.436.02 1.19.037.76.073 1.52.149 2.723.165.302.417.42 1.5.473.75.055 1.501.11 2.33.614 0 0 .13.436.021 1.19.037.76.073 1.52.149 2.723.165.302.417.42 1.416.48.446.053.891.106 1.415.607 0 0 .13.436.02 1.19.037.76.073 1.52.149 2.723.165.302.417.42 1.416.48.446.053.891.106 1.415.607 0 0 .13.436.02 1.19.037.76.073 1.52.149 2.723.165.302.417.42 1.416.48.446.053.891.106 1.415.607 0 0 .13.436.02 1.19.037.76.073 1.52.149 2.723.165.302.417.42 1.5.473.752.056 1.503.112 2.309.568.014.272.08.532.09 1.416.046.426.091.851.037 2.072.341.998.683 1.996.925 3.658.033.445.066.89-.015 2.267-1.435 11.319 2.952 23.14-3.05 34.084-2.091 3.815-3.7 7.894-5.792 11.709-2.6 4.74-5.61 9.258-8.185 14.012-2.06 3.804-3.47 7.97-5.641 11.702-3.547 6.098-7.8 11.798-11.152 17.993-3.2 5.914-5.567 12.274-8.431 18.376-1.003 2.136-2.35 4.119-3.622 6.12-2.699 4.243-5.795 8.275-8.088 12.724-2.426 4.704-3.537 9.926-7.476 14.044-2.132 2.23-2.533 6.113-4.35 9.303-.42.056-.84.112-1.912.53-1.083 1.988-2.482 3.87-3.19 5.985-1.87 5.588-4.257 10.693-7.767 15.621-4.433 6.222-7.383 13.51-10.898 20.375-2.276 4.445-4.306 9.02-6.668 13.418-1.218 2.268-2.92 4.275-4.83 6.248-.223.418-.446.837-.867 1.94-3.058 6.294-6.008 12.643-9.225 18.854-1.327 2.561-3.38 4.736-4.83 7.244-1.704 2.95-3.113 6.069-5.078 8.962-.223.418-.446.837-.863 1.827-1.29 2.61-2.567 5.225-3.873 7.826-.926 1.843-1.89 3.667-3.264 5.347-.223.418-.446.837-.863 1.828-1.028 1.565-2.242 3.04-3.042 4.714-1.382 2.893-2.242 6.055-3.794 8.841-3.248 5.828-6.844 11.46-10.214 17.222-1.81 3.093-3.578 6.225-5.124 9.454-1.513 3.161-2.721 6.468-4.698 9.764-.42.056-.84.112-1.912.532-1.43 3.99-1.922 8.124-5.022 11.711-3.65 4.226-6.049 9.547-8.88 14.458-1.283 2.225-2.261 4.625-3.444 6.91-2.358 4.557-4.873 9.037-7.11 13.651-1.52 3.138-2.678 6.45-4.632 9.738-.42.056-.84.112-1.898.495-.182 2.075-.363 4.15-1.308 6.118-.72 1.445-1.44 2.89-2.808 4.457l-.863 1.336c.87.143 1.74.286 3.541.544 12.614.35 25.228.95 37.843 1.011 84.921.41 169.842.741 254.763 1.02 24.822.081 49.643-.09 75.195-.03.74-.019 1.479-.036 2.761-.17 8.465-.26 16.935-.82 25.392-.664 4.836.09 6.315-1.45 6.205-6.255-.528-22.961-.766-45.929-1.075-68.894-.355-26.465-.671-52.93-1.014-79.396q-.486-37.447-.994-74.895c-.328-24.132-.677-48.264-1.002-72.396-.342-25.298-.669-50.597-.999-75.895-.336-25.799-.667-51.597-1.004-77.396-.329-25.132-.667-50.263-.993-75.395-.34-26.299-.699-52.597-1-78.895-.364-31.798-.743-63.596-.928-95.395-.025-4.21-1.479-5.507-5.53-5.37-7.158.244-14.33.066-21.496.067-7.026.002-7.026.003-8.77 6-13.63 0-27.139.056-40.648-.009-65.128-.312-130.26-.437-195.384-1.098-26.263-.267-52.507 1.154-78.825-1.523-18.144-1.845-36.628-.296-54.959-.415-3.618-.023-4.556 1.548-4.506 4.831.13 8.498.183 17.002-.018 25.496-.092 3.86 1.58 4.85 5.095 4.768 6.327-.147 12.662.033 18.973.79-.004.238-.007.476-.068.666 0 0 .047-.058.218.567l1.834-.135c.501.01 1.002.022 1.487.767.228.432.456.863.575 2.05.036.76.073 1.52.149 2.722.165.302.417.42 1.412.48.443.048.885.096 1.415.6 0 0 .134.443.024 1.198.037.76.073 1.52.149 2.722.165.302.417.42 1.416.48.446.053.891.106 1.415.607 0 0 .13.436.02 1.19.037.76.073 1.52.149 2.723.165.302.417.42 1.416.48.446.053.891.106 1.415.607 0 0 .13.436.02 1.19.037.76.073 1.52.149 2.723.165.302.417.42 1.496.472.748.048 1.496.096 2.273.076 0 0-.069.029 0 .774l.23 2.678c.166.302.418.42 1.417.48.446.053.891.106 1.415.607 0 0 .13.436.02 1.19.037.76.073 1.52.149 2.723.165.302.417.42 1.416.48.446.053.891.106 1.415.607 0 0 .13.436.02 1.19.037.76.073 1.52.149 2.723.165.302.417.42 1.416.48.446.053.891.106 1.415.607 0 0 .13.436.02 1.19.037.76.073 1.52.149 2.723.165.302.417.42 1.5.473.75.055 1.501.11 2.33.614 0 0 .13.436.021 1.19.037.76.073 1.52.149 2.723.165.302.417.42 1.416.48.446.053.891.106 1.415.607 0 0 .13.436.02 1.19.037.76.073 1.52.149 2.723.165.302.417.42 1.416.48.446.053.891.106 1.415.607 0 0 .13.436.02 1.19.037.76.073 1.52.149 2.723.165.302.417.42 1.416.48.446.053.891.106 1.415.607 0 0 .13.436.02 1.19.037.76.073 1.52.149 2.723.165.302.417.42 1.5.473.75.055 1.501.11 2.33.614 0 0 .13.436.021 1.19.037.76.073 1.52.149 2.723.165.302.417.42 1.416.48.446.053.891.106 1.415.607 0 0 .13.436.02 1.19.037.76.073 1.52.149 2.723.165.302.417.42 1.416.48.446.053.891.106 1.415.607 0 0 .13.436.02 1.19.037.76.073 1.52.149 2.723.165.302.417.42 1.416.48.446.053.891.106 1.415.607 0 0 .13.436.02 1.19.037.76.073 1.52.149 2.723.165.302.417.42 1.5.473.75.055 1.501.11 2.33.614 0 0 .13.436.021 1.19.037.76.073 1.52.149 2.723.165.302.417.42 1.416.48.446.053.891.106 1.415.607 0 0 .13.436.02 1.19.037.76.073 1.52.149 2.723.165.302.417.42 1.416.48.446.053.891.106 1.415.607 0 0 .13.436.02 1.19.037.76.073 1.52.149 2.723.165.302.417.42 1.416.48.446.053.891.106 1.415.607 0 0 .13.436.02 1.19.037.76.073 1.52.149 2.723.165.302.417.42 1.5.473.75.055 1.501.11 2.33.614 0 0 .13.436.021 1.19.037.76.073 1.52.149 2.723.165.302.417.42 1.412.478.442.046.884.092 1.357.07 0 0-.069.029 0 .774l.23 2.678c.166.302.418.42 1.417.48.446.053.891.106 1.415.607 0 0 .13.436.02 1.19.037.76.073 1.52.149 2.723.165.302.417.42 1.416.48.446.053.891.106 1.415.607 0 0 .13.436.02 1.19.037.76.073 1.52.149 2.723.165.302.417.42 1.5.473.75.055 1.501.11 2.33.614 0 0 .13.436.021 1.19.037.76.073 1.52.149 2.723.165.302.417.42 1.416.48.446.053.891.106 1.415.607 0 0 .13.436.02 1.19.037.76.073 1.52.149 2.723.165.302.417.42 1.416.48.446.053.891.106 1.415.607 0 0 .13.436.02 1.19.037.76.073 1.52.149 2.723.165.302.417.42 1.416.48.446.053.891.106 1.415.607 0 0 .13.436.02 1.19.037.76.073 1.52.149 2.723.165.302.417.42 1.5.473.75.055 1.501.11 2.33.614 0 0 .13.436.021 1.19.037.76.073 1.52.149 2.723.165.302.417.42 1.416.48.446.053.891.106 1.415.607 0 0 .13.436.02 1.19.037.76.073 1.52.149 2.723.165.302.417.42 1.416.48.446.053.891.106 1.415.607 0 0 .13.436.02 1.19.037.76.073 1.52.149 2.723.165.302.417.42 1.416.48.446.053.891.106 1.415.607 0 0 .13.436.02 1.19.037.76.073 1.52.149 2.723.165.302.417.42 1.5.473.75.055 1.501.11 2.33.614 0 0 .13.436.021 1.19.037.76.073 1.52.149 2.723.165.302.417.42 1.416.48.446.053.891.106 1.415.607 0 0 .13.436.02 1.19.037.76.073 1.52.149 2.723.165.302.417.42 1.416.48.446.053.891.106 1.415.607 0 0 .13.436.02 1.19.037.76.073 1.52.149 2.723.165.302.417.42 1.416.48.446.053.891.106 1.415.607 0 0 .13.436.02 1.19.037.76.073 1.52.149 2.723.165.302.417.42 1.5.473.75.055 1.501.11 2.33.614 0 0 .13.436.021 1.19.037.76.073 1.52.149 2.723.165.302.417.42 1.416.48.446.053.891.106 1.415.607 0 0 .13.436.02 1.19.037.76.073 1.52.149 2.723.165.302.417.42 1.416.48.446.053.891.106 1.415.607 0 0 .13.436.02 1.19.037.76.073 1.52.149 2.723.165.302.417.42 1.412.478.442.046.884.092 1.357.069 0 0-.069.03.001.776.063.744.127 1.49.23 2.677.165.302.417.42 1.5.473.75.055 1.501.11 2.33.614 0 0 .13.436.021 1.19.037.76.073 1.52.149 2.723.165.302.417.42 1.416.48.446.053.891.106 1.415.607 0 0 .13.436.02 1.19.037.76.073 1.52.149 2.723.165.302.417.42 1.416.48.446.053.891.106 1.415.607 0 0 .13.436.02 1.19.037.76.073 1.52.149 2.723.165.302.417.42 1.5.473.75.055 1.501.11 2.33.614 0 0 .13.436.021 1.19.037.76.073 1.52.149 2.723.165.302.417.42 1.416.48.446.053.891.106 1.415.607 0 0 .13.436.02 1.19.037.76.073 1.52.149 2.723.165.302.417.42 1.416.48.446.053.891.106 1.415.607 0 0 .13.436.02 1.19.037.76.073 1.52.149 2.723.165.302.417.42 1.416.48.446.053.891.106 1.415.607 0 0 .13.436.02 1.19.037.76.073 1.52.149 2.723.165.302.417.42 1.5.473.75.055 1.501.11 2.33.614 0 0 .13.436.021 1.19.037.76.073 1.52.149 2.723.165.302.417.42 1.416.48.446.053.891.106 1.415.607 0 0 .13.436.02 1.19.037.76.073 1.52.149 2.723.165.302.417.42 1.416.48m-169.68 419.688-.565.022c.098.09.195.181.566-.022"/><path fill="#C68AFF" d="M414.167 470c-.034-.446-.067-.891.289-1.723a53 53 0 0 0 2.109-2.781l-3.323-1.285c-.046-.426-.091-.851.15-1.76.061-1.138-.165-1.794-.425-2.78-.678-1.109-1.322-1.89-2.067-2.953-.7-.761-1.3-1.24-1.922-2.042-.341-1.108-.66-1.892-1.078-2.958-.7-.761-1.3-1.24-1.922-2.042-.341-1.108-.66-1.892-1.078-2.958-.7-.761-1.3-1.24-1.922-2.042-.341-1.108-.66-1.892-1.078-2.958-.7-.761-1.3-1.24-1.933-2.046-.678-1.11-1.322-1.89-2.067-2.954-.7-.761-1.3-1.24-1.922-2.042-.341-1.108-.66-1.892-1.078-2.958-.7-.761-1.3-1.24-1.922-2.042-.341-1.108-.66-1.892-1.078-2.958-.7-.761-1.3-1.24-1.922-2.042-.341-1.108-.66-1.892-1.078-2.958-.7-.761-1.3-1.24-1.933-2.046-.678-1.11-1.322-1.89-2.067-2.954-.7-.761-1.3-1.24-1.922-2.042-.341-1.108-.66-1.892-1.078-2.958-.7-.761-1.3-1.24-1.922-2.042-.341-1.108-.66-1.892-1.078-2.958-.7-.761-1.3-1.24-1.922-2.042-.341-1.108-.66-1.892-1.078-2.958-.7-.761-1.3-1.24-1.933-2.046-.678-1.11-1.322-1.89-2.067-2.954-.7-.761-1.3-1.24-1.922-2.042-.341-1.108-.66-1.892-1.078-2.958-.7-.761-1.3-1.24-1.922-2.042-.341-1.108-.66-1.892-1.078-2.958-.7-.761-1.3-1.24-1.951-2.077-1.382-1.101-2.712-1.844-4.043-2.586 0 0 .07-.031.06-.36-.328-1.45-.647-2.572-1.066-3.977-.7-.761-1.3-1.24-1.922-2.042-.341-1.108-.66-1.892-1.078-2.958-.7-.761-1.3-1.24-1.922-2.042-.341-1.108-.66-1.892-1.078-2.958-.7-.761-1.3-1.24-1.933-2.046-.678-1.11-1.322-1.89-2.067-2.954-.7-.761-1.3-1.24-1.922-2.042-.341-1.108-.66-1.892-1.078-2.958-.7-.761-1.3-1.24-1.922-2.042-.341-1.108-.66-1.892-1.078-2.958-.7-.761-1.3-1.24-1.922-2.042-.341-1.108-.66-1.892-1.078-2.958-.7-.761-1.3-1.24-1.933-2.046-.678-1.11-1.322-1.89-2.067-2.954-.7-.761-1.3-1.24-1.922-2.042-.341-1.108-.66-1.892-1.078-2.958-.7-.761-1.3-1.24-1.922-2.042-.341-1.108-.66-1.892-1.078-2.958-.7-.761-1.3-1.24-1.922-2.042-.341-1.108-.66-1.892-1.078-2.958-.7-.761-1.3-1.24-1.933-2.046-.678-1.11-1.322-1.89-2.067-2.954-.7-.761-1.3-1.24-1.922-2.042-.341-1.108-.66-1.892-1.078-2.958-.7-.761-1.3-1.24-1.922-2.042-.341-1.108-.66-1.892-1.078-2.958-.7-.761-1.3-1.24-1.922-2.042-.341-1.108-.66-1.892-1.078-2.958-.7-.761-1.3-1.24-1.933-2.046-.678-1.11-1.322-1.89-2.067-2.954-.7-.761-1.3-1.24-1.922-2.042-.341-1.108-.66-1.892-1.078-2.958-.7-.761-1.3-1.24-1.944-2.066-1.046-1.098-2.048-1.848-3.05-2.598 0 0 .07-.03.06-.358-.328-1.45-.647-2.573-1.066-3.978-.7-.761-1.3-1.24-1.933-2.046-.678-1.11-1.322-1.89-2.067-2.954-.7-.761-1.3-1.24-1.922-2.042-.341-1.108-.66-1.892-1.078-2.958-.7-.761-1.3-1.24-1.922-2.042-.341-1.108-.66-1.892-1.078-2.958-.7-.761-1.3-1.24-1.922-2.042-.341-1.108-.66-1.892-1.078-2.958-.7-.761-1.3-1.24-1.933-2.046-.678-1.11-1.322-1.89-2.067-2.954-.7-.761-1.3-1.24-1.922-2.042-.341-1.108-.66-1.892-1.078-2.958-.7-.761-1.3-1.24-1.922-2.042-.341-1.108-.66-1.892-1.078-2.958-.7-.761-1.3-1.24-1.922-2.042-.341-1.108-.66-1.892-1.078-2.958-.7-.761-1.3-1.24-1.933-2.046-.678-1.11-1.322-1.89-2.067-2.954-.7-.761-1.3-1.24-1.922-2.042-.341-1.108-.66-1.892-1.078-2.958-.7-.761-1.3-1.24-1.922-2.042-.341-1.108-.66-1.892-1.078-2.958-.7-.761-1.3-1.24-1.922-2.042-.341-1.108-.66-1.892-1.078-2.958-.7-.761-1.3-1.24-1.933-2.046-.678-1.11-1.322-1.89-2.067-2.954-.7-.761-1.3-1.24-1.922-2.042-.341-1.108-.66-1.892-1.078-2.958-.7-.761-1.3-1.24-1.922-2.042-.341-1.108-.66-1.892-1.078-2.958-.7-.761-1.3-1.24-1.944-2.066-1.046-1.098-2.048-1.848-3.05-2.598 0 0 .07-.029.057-.358-.663-1.451-1.313-2.574-2.063-3.978-.7-.761-1.3-1.24-1.922-2.042-.341-1.108-.66-1.892-1.078-2.958-.7-.761-1.3-1.24-1.922-2.042-.341-1.108-.66-1.892-1.053-2.914-.709-.379-1.344-.52-1.979-.66a9 9 0 0 1-1.776-.352c-.618-.393-.803-.563-1.004-.716-.036-.76-.073-1.52.364-2.656 3.805-.044 7.138.29 10.762.874 2.328.75 4.37 1.702 6.4 1.673 11.97-.174 23.94-.84 35.908-.83 12.969.01 25.936.8 38.906.867 79.11.407 158.222.706 237.334 1.035 5.664.024 11.329.003 17.051.465.408 8.082.941 15.698 1.074 23.322.418 23.947.703 47.896 1.005 71.844.343 27.118.63 54.236.975 81.354.307 24.116.672 48.232.993 72.348.365 27.447.805 54.893 1.03 82.34.164 19.994-.073 39.99.066 59.984.105 15.117.522 30.23.344 45.346-5.112.096-9.768.21-14.424.285-11.463.185-22.927.543-34.389.482-17.29-.092-34.58-.486-51.87-.737-2.984-.044-3.985 1.274-2.662 4.537-.009 11.747 0 23.032.02 34.725 1.338 1.502 2.603 3.447 4.003 3.55 8.423.62 16.876 1.068 25.321 1.109 24.912.119 49.826.02 75.039.302.1 4.792-.1 9.29-.777 13.78-57.497-.017-114.517-.025-171.538-.028-1.162 0-2.347-.062-3.482.134-2.57.442-2.873 1.888-1.554 4.38-.011 11.785.013 23.106-.13 34.702.01 5.281 3.92 3.705 6.457 3.71 57.147.09 114.294.07 171.5.501.11 2.46.162 4.49.034 6.741.182 1.09.545 1.956.965 3.28.02 4.155-.02 7.85-.515 11.547-26.051.332-51.645.643-77.239 1.002-21.601.303-43.201.696-64.803.984-27.922.372-55.845.7-83.769 1-8.317.09-16.636-.021-24.954.046-2.522.02-5.608-.16-3.546 4.487-.011 11.785.013 23.106-.13 34.702-.242 5.133 3.542 3.726 5.949 3.707 27.94-.22 55.878-.563 83.816-.932 21.78-.288 43.558-.722 65.338-.978 33.265-.39 66.53-.683 99.853-.554.02 5.488-.019 10.512-.515 15.536-109.558 0-218.658 0-327.759.002-1.832 0-3.673-.078-5.493.076-2.674.228-3.64 1.487-2.059 4.441-.027 11.77-.019 23.075-.363 34.606-8.469.442-16.585.659-24.699.48.135-1.38.003-2.504.439-3.326 4.776-9 9.577-17.986 14.496-26.908 6.263-11.36 12.7-22.624 18.951-33.99 5.146-9.357 10.021-18.863 15.222-28.188 4.32-7.748 9.16-15.21 13.378-23.01 6.798-12.574 13.185-25.368 19.913-37.98 5.923-11.104 12.102-22.072 18.119-33.126 6.274-11.525 12.415-23.124 18.75-34.615 6.424-11.65 13.156-23.132 19.5-34.824 9.994-18.422 19.65-37.029 29.706-55.417 4.804-8.786 10.363-17.158 15.25-25.902 2.463-4.409 5.467-9.095 5.973-13.893.955-9.056.253-18.284.3-27.44.014-2.667-1.058-4.097-3.833-3.987"/><path fill="#6D1CB9" d="M410.101 727.946c-.023-11.321-.047-22.642.426-34.446 11.805-.489 23.113-.499 34.422-.5 45.566-.001 91.133-.005 136.7.012 2.847.001 5.951.535 5.467-3.97.2-4.499.4-8.997.258-14.162-.409-1.417-.475-2.165-.557-3.136-.184-.53-.438-.648-1.247-.635-34.488-.447-68.508-.836-102.529-1.224-.008-11.286-.017-22.571.456-34.355 18.907-.178 37.332.395 55.757.384 15.593-.009 31.186-.694 47.002-1.097.53-.184.648-.438.633-1.157.019-1.139-.019-1.9-.056-2.66-.277-15.116-.694-30.23-.799-45.346-.139-19.994.098-39.99-.066-59.984-.225-27.447-.665-54.893-1.03-82.34-.32-24.116-.686-48.232-.993-72.348-.346-27.118-.632-54.236-.975-81.354-.302-23.948-.587-47.897-1.005-71.844-.133-7.624-.666-15.24-1.018-23.7a95 95 0 0 0-.13-3.34c-.184-.53-.438-.648-1.247-.635-23.076-.408-45.683-.93-68.293-1.076-65.422-.425-130.846-.813-196.27-.972-23.106-.056-46.214.59-69.208.853.156-.263.082-.403-.035-.698-.35-.447-.775-.675-1.552-1-1.954-.423-3.594-1.135-5.146-.975-1.895.195-3.715 1.12-5.567 1.73-.502-.011-1.003-.022-2.07-.318-.858-.258-1.149-.232-1.44-.205 0 0-.046.058.337.073.157-.455-.069-.924-.294-1.394-6.332-.044-12.667-.224-18.994-.077-3.514.082-5.187-.907-5.095-4.768.2-8.494.148-16.998.018-25.496-.05-3.283.888-4.854 4.506-4.83 18.331.118 36.815-1.431 54.96.414 26.317 2.677 52.561 1.256 78.824 1.523 65.125.661 130.256.786 195.384 1.098 13.51.065 27.019.01 40.649.01 1.743-5.998 1.743-6 8.769-6 7.166-.002 14.338.176 21.496-.067 4.051-.138 5.505 1.159 5.53 5.37.185 31.798.564 63.596.928 95.394.301 26.298.66 52.596 1 78.895.326 25.132.664 50.263.993 75.395.337 25.799.668 51.597 1.004 77.396.33 25.298.657 50.597.999 75.895.325 24.132.674 48.264 1.002 72.396q.508 37.447.994 74.895c.343 26.465.659 52.93 1.014 79.396.31 22.965.547 45.933 1.075 68.894.11 4.806-1.369 6.344-6.205 6.255-8.457-.156-16.927.404-25.836.446-1.297-.37-2.151-.523-3.02-1.085a721 721 0 0 0-.21-4.732c-.184-.53-.438-.648-1.247-.635-105.327-.075-210.187-.09-315.046-.113-6.823-.002-13.646-.063-20.47-.097-.008-11.305-.016-22.61.473-34.399 112.185-.483 223.873-.483 335.756-.483-.192-1.718-.32-2.868-.45-4.018a7548 7548 0 0 0 .112-15.957c.473-4.36-1.938-4.085-4.129-4.035-14.265.323-28.53.722-42.796.976-21.92.39-43.842.68-65.763 1.017-21.422.33-42.842.826-64.266.956-25.962.158-51.926.007-77.89-.01-.023-11.321-.047-22.642.426-34.446 19.084-.821 37.67-1.184 56.258-1.49 21.915-.362 43.83-.776 65.746-.987 42.38-.408 84.761-.69 127.142-1.023.665-.005 1.337-.067 1.995 0 3.177.328 3.645-1.454 3.165-4 .039-3.697.077-7.392.112-11.88-.283-1.583-.56-2.376-.839-3.17a992 992 0 0 1-.161-6.94c.26-5.712-3.481-3.934-5.625-3.938-57.406-.109-114.813-.108-172.219-.126"/><path fill="#C68AFF" d="M252.702 852.125c7.176-.192 13.999-.13 20.822-.13 104.86.024 209.719.039 315.166.26.758.39.943.56 1.144.712.06 1.366.119 2.732.182 4.746.003.647-.016 1.121-.016 1.121-24.822.055-49.643.226-74.465.145-84.92-.279-169.842-.61-254.763-1.02-12.615-.061-25.229-.66-38.389-1.334-.86-.775-1.172-1.227-1.485-1.678.72-1.445 1.44-2.89 2.916-3.904A98 98 0 0 0 228 853c8.117-.216 16.233-.433 24.702-.875"/><path fill="#C68AFF" d="M228.003 852.604c-1.147-.112-2.29-.62-3.807-1.508-.192-2.453-.01-4.528.593-6.52.937.38 1.451.679 1.966.977l.144-1.608c1.32-3.234 2.478-6.547 3.999-9.685 2.236-4.614 4.75-9.094 7.109-13.65 1.183-2.286 2.16-4.686 3.444-6.911 2.831-4.91 5.23-10.232 8.88-14.458 3.1-3.587 3.592-7.722 5.451-11.647.944.363 1.458.66 1.973.96l.144-1.609c1.343-3.243 2.55-6.55 4.064-9.71 1.546-3.23 3.314-6.362 5.124-9.455 3.37-5.762 6.966-11.394 10.214-17.222 1.552-2.786 2.412-5.948 3.794-8.84.8-1.674 2.014-3.15 3.428-5.262.559-.741.732-.935.905-1.128.946-1.833 1.91-3.657 2.836-5.5 1.306-2.601 2.583-5.217 4.259-8.373.559-.74.732-.934.905-1.127 1.537-3.046 2.946-6.166 4.65-9.115 1.45-2.508 3.503-4.683 4.83-7.244 3.217-6.21 6.167-12.56 9.613-19.457.56-.797.734-.99.907-1.184 1.483-2.126 3.184-4.133 4.402-6.401 2.362-4.398 4.392-8.973 6.668-13.418 3.515-6.866 6.465-14.153 10.898-20.375 3.51-4.928 5.897-10.033 7.768-15.62.707-2.115 2.106-3.998 3.618-5.92.944.363 1.458.66 1.973.96l.144-1.609c1.183-3.137 1.584-7.02 3.716-9.25 3.939-4.118 5.05-9.34 7.476-14.044 2.293-4.449 5.39-8.481 8.088-12.725 1.272-2 2.619-3.983 3.622-6.119 2.864-6.102 5.23-12.462 8.43-18.376 3.353-6.195 7.606-11.895 11.153-17.993 2.17-3.732 3.581-7.898 5.641-11.702 2.575-4.754 5.584-9.271 8.185-14.012 2.092-3.815 3.7-7.894 5.792-11.709 6.002-10.944 1.615-22.765 3.107-34.55 2.833-.576 3.905.854 3.891 3.52-.047 9.157.655 18.385-.3 27.441-.506 4.798-3.51 9.484-5.973 13.893-4.887 8.744-10.446 17.116-15.25 25.902-10.055 18.388-19.712 36.995-29.706 55.417-6.344 11.692-13.076 23.174-19.5 34.824-6.335 11.491-12.476 23.09-18.75 34.615-6.017 11.054-12.196 22.022-18.119 33.125-6.728 12.613-13.115 25.407-19.913 37.98-4.218 7.801-9.057 15.263-13.378 23.01-5.2 9.326-10.076 18.832-15.222 28.189-6.251 11.366-12.688 22.63-18.95 33.99-4.92 8.922-9.721 17.909-14.497 26.908-.436.822-.304 1.946-.439 3.325m17.687-664.17c.191.077.265.217-.094.98-.41.903-.503 1.244-.596 1.586a932 932 0 0 0-10.415-1c-.647-.432-.875-.863-1.095-1.662 1.861-.977 3.681-1.902 5.576-2.097 1.552-.16 3.192.552 5.413 1.27.817.568 1.014.746 1.212.923M385 417c.645.781 1.29 1.562 1.957 2.95.016.793.009.98.001 1.165a18.4 18.4 0 0 1-2.745-.368c-.661-.39-.846-.56-1.047-.713-.036-.76-.072-1.52.252-2.657.767-.377 1.175-.377 1.582-.377m-49-74c.645.781 1.29 1.562 1.957 2.95.016.793.009.98.001 1.165a18.4 18.4 0 0 1-2.745-.368c-.661-.39-.846-.56-1.047-.713-.036-.76-.072-1.52.252-2.657.767-.377 1.175-.377 1.582-.377m75 114c.645.781 1.29 1.562 1.958 2.951.017.795.01.98.003 1.167a18.5 18.5 0 0 1-2.747-.371c-.662-.39-.847-.56-1.048-.713-.036-.76-.072-1.52.252-2.657.767-.377 1.175-.377 1.582-.377M271 244c.645.781 1.29 1.562 1.957 2.95.016.794.009.98.001 1.165a18.4 18.4 0 0 1-2.745-.368c-.661-.39-.846-.56-1.047-.713-.036-.76-.072-1.52.252-2.657.767-.377 1.175-.377 1.582-.377m127 193c.645.781 1.29 1.562 1.957 2.95.016.793.009.98.001 1.165-.75-.055-1.502-.11-2.745-.368-.661-.39-.846-.56-1.047-.713-.036-.76-.072-1.52.252-2.657.767-.377 1.175-.377 1.582-.377M284 264c.645.781 1.29 1.562 1.957 2.95.016.793.009.98.001 1.165a18.4 18.4 0 0 1-2.745-.368c-.661-.39-.846-.56-1.047-.713-.036-.76-.072-1.52.252-2.657.767-.377 1.175-.377 1.582-.377m39 59c.645.781 1.29 1.562 1.957 2.95.016.793.009.98.001 1.165-.75-.055-1.502-.11-2.745-.368-.661-.39-.846-.56-1.047-.713-.036-.76-.072-1.52.252-2.657.767-.377 1.175-.377 1.582-.377m-26-39c.645.781 1.29 1.562 1.957 2.95.016.793.009.98.001 1.165-.75-.055-1.502-.11-2.745-.368-.661-.39-.846-.56-1.047-.713-.036-.76-.072-1.52.252-2.657.767-.377 1.175-.377 1.582-.377m75 113c.645.781 1.29 1.562 1.957 2.95.016.793.009.98.001 1.165-.75-.055-1.502-.11-2.745-.368-.661-.39-.846-.56-1.047-.713-.036-.76-.072-1.52.252-2.657.767-.377 1.175-.377 1.582-.377m-62-94c.645.781 1.29 1.562 1.957 2.95.016.793.009.98.001 1.165-.75-.055-1.502-.11-2.745-.368-.661-.39-.846-.56-1.047-.713-.036-.76-.072-1.52.252-2.657.767-.377 1.175-.377 1.582-.377m39 60c.645.781 1.29 1.562 1.957 2.95.016.793.009.98.001 1.165-.75-.055-1.502-.11-2.745-.368-.661-.39-.846-.56-1.047-.713-.036-.76-.072-1.52.252-2.657.767-.377 1.175-.377 1.582-.377m10.941 19.427c1.296.37 2.626 1.113 3.998 2.493.034.823.027 1.01.02 1.195a18.5 18.5 0 0 1-2.746-.368c-.661-.39-.846-.56-1.047-.713a783 783 0 0 0-.225-2.607M258 224c.645.781 1.29 1.562 1.957 2.95.016.794.009.98.001 1.165-.75-.055-1.502-.11-2.745-.368-.661-.39-.846-.56-1.047-.713-.036-.76-.072-1.52.252-2.657.767-.377 1.175-.377 1.582-.377m-13-19c.65 1.122 1.3 2.245 1.948 3.73-.75.315-1.498.267-2.736.016-.66-.39-.845-.56-1.046-.712-.036-.76-.072-1.52.252-2.657.767-.377 1.175-.377 1.582-.377m168.192 259.608c1.158.031 2.265.46 3.373.888-.574.798-1.147 1.597-2.06 2.45-.68-.944-1.022-1.942-1.313-3.338M262 229c.318.784.637 1.568.968 2.955.005.789-.002.974-.01 1.16a9.5 9.5 0 0 1-1.786-.364c-.62-.394-.805-.564-1.006-.717-.036-.76-.072-1.52.252-2.657.767-.377 1.175-.377 1.582-.377m127 193c.318.784.637 1.568.968 2.955.005.788-.002.974-.01 1.16a9.5 9.5 0 0 1-1.786-.364c-.62-.394-.805-.564-1.006-.717-.036-.76-.072-1.52.252-2.657.767-.377 1.175-.377 1.582-.377M288 269c.318.784.637 1.568.968 2.955.005.788-.002.974-.01 1.16a9.5 9.5 0 0 1-1.786-.364c-.62-.394-.805-.564-1.006-.717-.036-.76-.072-1.52.252-2.657.767-.377 1.175-.377 1.582-.377m32 49c.318.784.637 1.568.968 2.955.005.788-.003.974-.01 1.16a9.5 9.5 0 0 1-1.786-.364c-.62-.394-.805-.564-1.006-.717-.036-.76-.072-1.52.252-2.657.767-.377 1.175-.377 1.582-.377m-73.059-108.574c.967.378 1.969 1.128 3.005 2.505.027.813.02.998.012 1.184a9.5 9.5 0 0 1-1.786-.364c-.62-.394-.805-.564-1.006-.717-.063-.745-.127-1.49-.225-2.608M291 274c.318.784.637 1.568.968 2.955.005.788-.002.974-.01 1.16a9.5 9.5 0 0 1-1.786-.364c-.62-.394-.805-.564-1.006-.717-.036-.76-.072-1.52.252-2.657.767-.377 1.175-.377 1.582-.377m65 99c.318.784.637 1.568.968 2.955.005.788-.002.974-.01 1.16a9.5 9.5 0 0 1-1.786-.364c-.62-.394-.805-.564-1.006-.717-.036-.76-.072-1.52.252-2.657.767-.377 1.175-.377 1.582-.377m26 39c.318.784.637 1.568.968 2.955.005.788-.003.974-.01 1.16a9.4 9.4 0 0 1-1.786-.364c-.62-.394-.805-.564-1.006-.717-.036-.76-.072-1.52.252-2.657.767-.377 1.175-.377 1.582-.377m-88-133c.318.784.637 1.568.968 2.955.005.788-.003.974-.01 1.16a9.4 9.4 0 0 1-1.786-.364c-.62-.394-.805-.564-1.006-.717-.036-.76-.072-1.52.252-2.657.767-.377 1.175-.377 1.582-.377m23 34c.318.784.637 1.568.968 2.955.005.788-.003.974-.01 1.16a9.5 9.5 0 0 1-1.786-.364c-.62-.394-.805-.564-1.006-.717-.036-.76-.072-1.52.252-2.657.767-.377 1.175-.377 1.582-.377m62 94c.318.784.637 1.568.968 2.955.005.788-.003.974-.01 1.16a9.5 9.5 0 0 1-1.786-.364c-.62-.394-.805-.564-1.006-.717-.036-.76-.072-1.52.252-2.657.767-.377 1.175-.377 1.582-.377m-26-39c.318.784.637 1.568.968 2.955.005.788-.003.974-.01 1.16a9.5 9.5 0 0 1-1.786-.364c-.62-.394-.805-.564-1.006-.717-.036-.76-.072-1.52.252-2.657.767-.377 1.175-.377 1.582-.377m6 10c.32 1.123.638 2.245.951 3.73-.449.317-.891.271-1.782.02-.617-.393-.802-.563-1.003-.716-.036-.76-.072-1.52.252-2.657.767-.377 1.175-.377 1.582-.377m17 24c.318.784.637 1.568.968 2.955.005.788-.003.974-.01 1.16a9.4 9.4 0 0 1-1.786-.364c-.62-.394-.805-.564-1.006-.717-.036-.76-.072-1.52.252-2.657.767-.377 1.175-.377 1.582-.377m-75-113c.32 1.123.638 2.245.951 3.73-.449.317-.891.271-1.782.02-.617-.393-.802-.563-1.003-.716-.036-.76-.072-1.52.252-2.657.767-.377 1.175-.377 1.582-.377m-62-94c.318.784.637 1.568.968 2.955.005.788-.002.974-.01 1.16a9.5 9.5 0 0 1-1.786-.364c-.62-.394-.805-.564-1.006-.717-.036-.76-.072-1.52.252-2.657.767-.377 1.175-.377 1.582-.377m62.941 98.426c.967.378 1.969 1.128 3.005 2.505.027.813.02.998.012 1.184a9.5 9.5 0 0 1-1.786-.364c-.62-.394-.805-.564-1.006-.717-.063-.745-.127-1.49-.225-2.608M314 308c.318.784.637 1.568.968 2.955.005.788-.003.974-.01 1.16a9.5 9.5 0 0 1-1.786-.364c-.62-.394-.805-.564-1.006-.717-.036-.76-.072-1.52.252-2.657.767-.377 1.175-.377 1.582-.377m52 79c.318.784.637 1.568.968 2.955.005.788-.002.974-.01 1.16a9.5 9.5 0 0 1-1.786-.364c-.62-.394-.805-.564-1.006-.717-.036-.76-.072-1.52.252-2.657.767-.377 1.175-.377 1.582-.377m-59-89c.318.784.637 1.568.968 2.955.005.788-.003.974-.01 1.16a9.4 9.4 0 0 1-1.786-.364c-.62-.394-.805-.564-1.006-.717-.036-.76-.072-1.52.252-2.657.767-.377 1.175-.377 1.582-.377m62 94c.318.784.637 1.568.968 2.955.005.788-.003.974-.01 1.16a9.4 9.4 0 0 1-1.786-.364c-.62-.394-.805-.564-1.006-.717-.036-.76-.072-1.52.252-2.657.767-.377 1.175-.377 1.582-.377M242 200c.318.784.637 1.568.968 2.955.005.788-.003.974-.01 1.16a9.5 9.5 0 0 1-1.786-.364c-.62-.394-.805-.564-1.006-.717-.036-.76-.072-1.52.252-2.657.767-.377 1.175-.377 1.582-.377m33 49c.318.784.637 1.568.968 2.955.005.789-.002.974-.01 1.16a9.5 9.5 0 0 1-1.786-.364c-.62-.394-.805-.564-1.006-.717-.036-.76-.072-1.52.252-2.657.767-.377 1.175-.377 1.582-.377m65 99c.318.784.637 1.568.968 2.955.005.788-.002.974-.01 1.16a9.5 9.5 0 0 1-1.786-.364c-.62-.394-.805-.564-1.006-.717-.036-.76-.072-1.52.252-2.657.767-.377 1.175-.377 1.582-.377m-75-114c.318.784.637 1.568.968 2.955.005.789-.002.974-.01 1.16a9.5 9.5 0 0 1-1.786-.364c-.62-.394-.805-.564-1.006-.717-.036-.76-.072-1.52.252-2.657.767-.377 1.175-.377 1.582-.377m68 104c.318.784.637 1.568.968 2.955.005.788-.003.974-.01 1.16a9.5 9.5 0 0 1-1.786-.364c-.62-.394-.805-.564-1.006-.717-.036-.76-.072-1.52.252-2.657.767-.377 1.175-.377 1.582-.377m75 114c.318.784.637 1.568.968 2.955.005.788-.003.974-.01 1.16a9.5 9.5 0 0 1-1.786-.364c-.62-.394-.805-.564-1.006-.717-.036-.76-.072-1.52.252-2.657.767-.377 1.175-.377 1.582-.377M268 239c.318.784.637 1.568.968 2.955.005.788-.003.974-.01 1.16a9.5 9.5 0 0 1-1.786-.364c-.62-.394-.805-.564-1.006-.717-.036-.76-.072-1.52.252-2.657.767-.377 1.175-.377 1.582-.377m75 114c.318.784.637 1.568.968 2.955.005.788-.002.974-.01 1.16a9.5 9.5 0 0 1-1.786-.364c-.62-.394-.805-.564-1.006-.717-.036-.76-.072-1.52.252-2.657.767-.377 1.175-.377 1.582-.377m62 94c.318.784.637 1.568.968 2.955.005.788-.003.974-.01 1.16a9.5 9.5 0 0 1-1.786-.364c-.62-.394-.805-.564-1.006-.717-.036-.76-.072-1.52.252-2.657.767-.377 1.175-.377 1.582-.377M255 219c.318.784.637 1.568.968 2.955.005.788-.003.974-.01 1.16a9.4 9.4 0 0 1-1.786-.364c-.62-.394-.805-.564-1.006-.717-.036-.76-.072-1.52.252-2.657.767-.377 1.175-.377 1.582-.377m75 114c.318.784.637 1.568.968 2.955.005.788-.003.974-.01 1.16a9.5 9.5 0 0 1-1.786-.364c-.62-.394-.805-.564-1.006-.717-.036-.76-.072-1.52.252-2.657.767-.377 1.175-.377 1.582-.377m72 109c.318.784.637 1.568.968 2.955.005.788-.003.974-.01 1.16a9.5 9.5 0 0 1-1.786-.364c-.62-.394-.805-.564-1.006-.717-.036-.76-.072-1.52.252-2.657.767-.377 1.175-.377 1.582-.377m-56-84c.318.784.637 1.568.968 2.955.005.788-.003.974-.01 1.16a9.4 9.4 0 0 1-1.786-.364c-.62-.394-.805-.564-1.006-.717-.036-.76-.072-1.52.252-2.657.767-.377 1.175-.377 1.582-.377m-94-144c.318.784.637 1.568.968 2.955.005.788-.003.974-.01 1.16a9.5 9.5 0 0 1-1.786-.364c-.62-.394-.805-.564-1.006-.717-.036-.76-.072-1.52.252-2.657.767-.377 1.175-.377 1.582-.377m26 40c.318.784.637 1.568.968 2.955.005.788-.002.974-.01 1.16a9.5 9.5 0 0 1-1.786-.364c-.62-.394-.805-.564-1.006-.717-.036-.76-.072-1.52.252-2.657.767-.377 1.175-.377 1.582-.377m49 74c.318.784.637 1.568.968 2.955.005.788-.003.974-.01 1.16a9.5 9.5 0 0 1-1.786-.364c-.62-.394-.805-.564-1.006-.717-.036-.76-.072-1.52.252-2.657.767-.377 1.175-.377 1.582-.377m68 104c.318.784.637 1.568.968 2.955.005.788-.003.974-.01 1.16a9.5 9.5 0 0 1-1.786-.364c-.62-.394-.805-.564-1.006-.717-.036-.76-.072-1.52.252-2.657.767-.377 1.175-.377 1.582-.377M281 259c.318.784.637 1.568.968 2.955.005.788-.003.974-.01 1.16a9.4 9.4 0 0 1-1.786-.364c-.62-.394-.805-.564-1.006-.717-.036-.76-.072-1.52.252-2.657.767-.377 1.175-.377 1.582-.377m111 168c.318.784.637 1.568.968 2.955.005.788-.003.974-.01 1.16a9.4 9.4 0 0 1-1.786-.364c-.62-.394-.805-.564-1.006-.717-.036-.76-.072-1.52.252-2.657.767-.377 1.175-.377 1.582-.377"/><path fill="#C68AFF" d="M348.582 620.971c.27.51.221 1.046.173 1.582-.515-.298-1.03-.596-1.647-1.14.318-.303.738-.359 1.474-.442M220.574 855.007c.637.391.95.843 1.343 1.56-.79.123-1.659-.02-2.529-.163.288-.445.575-.89 1.186-1.397m6.008-11.036c.27.51.221 1.046.173 1.582-.515-.298-1.03-.596-1.647-1.14.318-.303.737-.359 1.474-.442m31-57c.27.51.221 1.046.173 1.582-.515-.298-1.03-.596-1.647-1.14.318-.303.738-.359 1.474-.442M339.9 347.718c-.307.282-.715.282-1.428.282-.305 0-.435-.436-.474-.66-.032-.41-.025-.596-.008-1.061.61.2 1.21.678 1.91 1.439m29 44c-.307.282-.715.282-1.428.282-.305 0-.435-.436-.474-.66-.032-.41-.025-.596-.008-1.061.61.2 1.21.678 1.91 1.439m44.088 69.6c-.02-.386-.013-.572.003-1.038.236.377.462 1.033.454 1.854-.35-.084-.416-.344-.457-.816m-70.088-108.6c-.307.282-.715.282-1.428.282-.305 0-.435-.436-.474-.66-.032-.41-.025-.596-.008-1.061.61.2 1.21.678 1.91 1.439m66.097 103.622c-.032-.41-.024-.597-.007-1.061.61.2 1.21.678 1.91 1.439-.307.282-.715.282-1.428.282-.305 0-.435-.436-.475-.66m-3-5c-.032-.41-.024-.597-.007-1.061.61.2 1.21.678 1.91 1.439-.307.282-.715.282-1.428.282-.305 0-.435-.436-.475-.66M345.9 357.718c-.307.282-.715.282-1.428.282-.305 0-.435-.436-.474-.66-.032-.41-.025-.596-.008-1.061.61.2 1.21.678 1.91 1.439m57.097 88.622c-.032-.41-.024-.597-.007-1.061.61.2 1.21.678 1.91 1.439-.307.282-.715.282-1.428.282-.305 0-.435-.436-.475-.66m-1.097-4.622c-.307.282-.715.282-1.428.282-.305 0-.435-.436-.474-.66-.032-.41-.025-.596-.008-1.061.61.2 1.21.678 1.91 1.439m-54.903-79.378c-.032-.41-.024-.597-.007-1.061.61.2 1.21.678 1.91 1.439-.307.282-.715.282-1.428.282-.305 0-.435-.436-.475-.66m49 74c-.032-.41-.024-.597-.007-1.061.61.2 1.21.678 1.91 1.439-.307.282-.715.282-1.428.282-.305 0-.435-.436-.475-.66m-3-5c-.032-.41-.024-.597-.007-1.061.61.2 1.21.678 1.91 1.439-.307.282-.715.282-1.428.282-.305 0-.435-.436-.475-.66M352.9 367.718c-.307.282-.715.282-1.428.282-.305 0-.435-.436-.474-.66-.032-.41-.025-.596-.008-1.061.61.2 1.21.678 1.91 1.439m39 59c-.307.282-.715.282-1.428.282-.305 0-.435-.436-.474-.66-.032-.41-.025-.596-.008-1.061.61.2 1.21.678 1.91 1.439m-37.903-54.378c-.032-.41-.024-.597-.007-1.061.61.2 1.21.678 1.91 1.439-.307.282-.715.282-1.428.282-.305 0-.435-.436-.475-.66m34.903 49.378c-.307.282-.715.282-1.428.282-.305 0-.435-.436-.474-.66-.032-.41-.025-.596-.008-1.061.61.2 1.21.678 1.91 1.439m-5.903-5.378c-.032-.41-.024-.597-.007-1.061.61.2 1.21.678 1.91 1.439-.307.282-.715.282-1.428.282-.305 0-.435-.436-.475-.66M358.9 377.718c-.307.282-.715.282-1.428.282-.305 0-.435-.436-.474-.66-.032-.41-.025-.596-.008-1.061.61.2 1.21.678 1.91 1.439m21.097 33.622c-.032-.41-.024-.597-.007-1.061.61.2 1.21.678 1.91 1.439-.307.282-.715.282-1.428.282-.305 0-.435-.436-.475-.66m-3-5c-.032-.41-.024-.597-.007-1.061.61.2 1.21.678 1.91 1.439-.307.282-.715.282-1.428.282-.305 0-.435-.436-.475-.66m-1.097-4.622c-.307.282-.715.282-1.428.282-.305 0-.435-.436-.474-.66-.032-.41-.025-.596-.008-1.061.61.2 1.21.678 1.91 1.439m-10-15c-.307.282-.715.282-1.428.282-.305 0-.435-.436-.474-.66-.032-.41-.025-.596-.008-1.061.61.2 1.21.678 1.91 1.439m4.097 9.622c-.032-.41-.024-.597-.007-1.061.61.2 1.21.678 1.91 1.439-.307.282-.715.282-1.428.282-.305 0-.435-.436-.475-.66m-117-178c-.032-.41-.024-.597-.007-1.061.61.2 1.21.678 1.91 1.439-.307.282-.715.282-1.428.282-.305 0-.435-.436-.475-.66m29 45c-.032-.41-.024-.597-.007-1.061.61.2 1.21.678 1.91 1.439-.307.282-.715.282-1.428.282-.305 0-.435-.436-.475-.66m33 49c-.032-.41-.024-.597-.007-1.061.61.2 1.21.678 1.91 1.439-.307.282-.715.282-1.428.282-.305 0-.435-.436-.475-.66M267.9 238.718c-.307.282-.715.282-1.428.282-.305 0-.435-.436-.474-.66-.032-.41-.025-.596-.008-1.061.61.2 1.21.678 1.91 1.439m-16-25c-.307.282-.715.282-1.428.282-.305 0-.435-.436-.474-.66-.032-.41-.025-.596-.008-1.061.61.2 1.21.678 1.91 1.439m36 55c-.307.282-.715.282-1.428.282-.305 0-.435-.436-.474-.66-.032-.41-.025-.596-.008-1.061.61.2 1.21.678 1.91 1.439m26 39c-.307.282-.715.282-1.428.282-.305 0-.435-.436-.474-.66-.032-.41-.025-.596-.008-1.061.61.2 1.21.678 1.91 1.439m-5.903-5.378c-.032-.41-.024-.597-.007-1.061.61.2 1.21.678 1.91 1.439-.307.282-.715.282-1.428.282-.305 0-.435-.436-.475-.66M290.9 273.718c-.307.282-.715.282-1.428.282-.305 0-.435-.436-.474-.66-.032-.41-.025-.596-.008-1.061.61.2 1.21.678 1.91 1.439m-16-25c-.307.282-.715.282-1.428.282-.305 0-.435-.436-.474-.66-.032-.41-.025-.596-.008-1.061.61.2 1.21.678 1.91 1.439m32 49c-.307.282-.715.282-1.428.282-.305 0-.435-.436-.474-.66-.032-.41-.025-.596-.008-1.061.61.2 1.21.678 1.91 1.439m-42-64c-.307.282-.715.282-1.428.282-.305 0-.435-.436-.474-.66-.032-.41-.025-.596-.008-1.061.61.2 1.21.678 1.91 1.439m29 45c-.307.282-.715.282-1.428.282-.305 0-.435-.436-.474-.66-.032-.41-.025-.596-.008-1.061.61.2 1.21.678 1.91 1.439m7 10c-.307.282-.715.282-1.428.282-.305 0-.435-.436-.474-.66-.032-.41-.025-.596-.008-1.061.61.2 1.21.678 1.91 1.439m-44.903-65.378c-.032-.41-.024-.597-.007-1.061.61.2 1.21.678 1.91 1.439-.307.282-.715.282-1.428.282-.305 0-.435-.436-.475-.66m39 60c-.032-.41-.024-.597-.007-1.061.61.2 1.21.678 1.91 1.439-.307.282-.715.282-1.428.282-.305 0-.435-.436-.475-.66M261.9 228.718c-.307.282-.715.282-1.428.282-.305 0-.435-.436-.474-.66-.032-.41-.025-.596-.008-1.061.61.2 1.21.678 1.91 1.439m-18.903-24.378c-.032-.41-.024-.597-.007-1.061.61.2 1.21.678 1.91 1.439-.307.282-.715.282-1.428.282-.305 0-.435-.436-.475-.66m91 138c-.032-.41-.024-.597-.007-1.061.61.2 1.21.678 1.91 1.439-.307.282-.715.282-1.428.282-.305 0-.435-.436-.475-.66M277.9 253.718c-.307.282-.715.282-1.428.282-.305 0-.435-.436-.474-.66-.032-.41-.025-.596-.008-1.061.61.2 1.21.678 1.91 1.439m53.097 83.622c-.032-.41-.024-.597-.007-1.061.61.2 1.21.678 1.91 1.439-.307.282-.715.282-1.428.282-.305 0-.435-.436-.475-.66m-3-5c-.032-.41-.024-.597-.007-1.061.61.2 1.21.678 1.91 1.439-.307.282-.715.282-1.428.282-.305 0-.435-.436-.475-.66M280.9 258.718c-.307.282-.715.282-1.428.282-.305 0-.435-.436-.474-.66-.032-.41-.025-.596-.008-1.061.61.2 1.21.678 1.91 1.439m-41.975-63.956c-.332.238-.74.238-1.453.238-.305 0-.439-.443-.482-.67.591-.087 1.226.053 1.935.432M326.9 327.718c-.307.282-.715.282-1.428.282-.305 0-.435-.436-.474-.66-.032-.41-.025-.596-.008-1.061.61.2 1.21.678 1.91 1.439m-57.903-84.378c-.032-.41-.024-.597-.007-1.061.61.2 1.21.678 1.91 1.439-.307.282-.715.282-1.428.282-.305 0-.435-.436-.475-.66M241.9 199.718c-.307.282-.715.282-1.428.282-.305 0-.435-.436-.474-.66-.032-.41-.025-.596-.008-1.061.61.2 1.21.678 1.91 1.439m79.097 122.622c-.032-.41-.024-.597-.007-1.061.61.2 1.21.678 1.91 1.439-.307.282-.715.282-1.428.282-.305 0-.435-.436-.475-.66m-3-5c-.032-.41-.024-.597-.007-1.061.61.2 1.21.678 1.91 1.439-.307.282-.715.282-1.428.282-.305 0-.435-.436-.475-.66m272.368 541.551c-.365-.057-.346-.531-.335-.768.866-.085 1.72.068 2.746.496-.567.294-1.307.311-2.411.272M406.186 455.256c.18-.07.366.1.655.432-.218.21-.47.091-.655-.432m-143-218c.18-.07.366.1.655.432-.218.21-.47.09-.655-.432m6 10c.18-.07.366.1.655.432-.218.21-.47.09-.655-.432m131 198c.18-.07.366.1.655.432-.218.21-.47.091-.655-.432m9 15c.18-.07.366.1.655.432-.218.21-.47.091-.655-.432m-6-10c.18-.07.366.1.655.432-.218.21-.47.091-.655-.432m-137-208c.18-.07.366.1.655.432-.218.21-.47.09-.655-.432m-6-10c.18-.07.366.1.655.432-.218.21-.47.09-.655-.432m-13-20c.18-.07.366.1.655.432-.218.21-.47.091-.655-.432m-17.165-25.772c.236.113.462.582.334 1.061-.351-.229-.348-.467-.334-1.061m4.165 6.772c.18-.07.366.1.655.432-.218.21-.47.091-.655-.432m-12.379 657.536c-.235.056-.332-.034-.43-.125.188-.007.377-.015.43.125m15.379-652.536c.18-.07.366.1.655.432-.218.21-.47.091-.655-.432m3 5c.18-.07.366.1.655.432-.218.21-.47.091-.655-.432m3 5c.18-.07.366.1.655.432-.218.21-.47.091-.655-.432m13 19c.18-.07.366.1.655.432-.218.21-.47.09-.655-.432M284.62 736.17c-.066-.158.157-.577.594-.919.04.27-.132.464-.594.918m8-14.999c-.066-.158.157-.577.594-.919.04.27-.132.464-.594.918m-42.434-503.913c.18-.07.366.1.655.432-.218.21-.47.091-.655-.432M312.62 684.17c-.066-.158.157-.577.594-.919.04.27-.132.464-.594.918m-30.434-416.913c.18-.07.366.1.655.432-.218.21-.47.091-.655-.432m-29-45c.18-.07.366.1.655.432-.218.21-.47.091-.655-.432m98 149c.18-.07.366.1.655.432-.218.21-.47.091-.655-.432m-46-70c.18-.07.366.1.655.432-.218.21-.47.091-.655-.432m59 89c.18-.07.366.1.655.432-.218.21-.47.091-.655-.432m-56-84c.18-.07.366.1.655.432-.218.21-.47.091-.655-.432m52 79c.18-.07.366.1.655.432-.218.21-.47.091-.655-.432m-48-74c.18-.07.366.1.655.432-.218.21-.47.091-.655-.432m45 70c.18-.07.366.1.655.432-.218.21-.47.091-.655-.432m-42-65c.18-.07.366.1.655.432-.218.21-.47.091-.655-.432m39 60c.18-.07.366.1.655.432-.218.21-.47.091-.655-.432m-36-55c.18-.07.366.1.655.432-.218.21-.47.091-.655-.432m49 74c.18-.07.366.1.655.432-.218.21-.47.091-.655-.432m-46-69c.18-.07.366.1.655.432-.218.21-.47.091-.655-.432m26 40c.18-.07.366.1.655.432-.218.21-.47.091-.655-.432m-22-35c.18-.07.366.1.655.432-.218.21-.47.091-.655-.432m19 30c.18-.07.366.1.655.432-.218.21-.47.091-.655-.432m-16-25c.18-.07.366.1.655.432-.218.21-.47.091-.655-.432m13 20c.18-.07.366.1.655.432-.218.21-.47.091-.655-.432m-10-15c.18-.07.366.1.655.432-.218.21-.47.091-.655-.432m7 10c.18-.07.366.1.655.432-.218.21-.47.091-.655-.432"/><path fill="#C68AFF" d="M230.075 187.76c.205-.339.496-.365 1.103-.088-.128.335-.573.368-1.103.088m59.111 89.496c.18-.07.366.1.655.432-.218.21-.47.091-.655-.432m107 163c.18-.07.366.1.655.432-.218.21-.47.091-.655-.432m-120-183c.18-.07.366.1.655.432-.218.21-.47.091-.655-.432m117 178c.18-.07.366.1.655.432-.218.21-.47.091-.655-.432m-114-173c.18-.07.366.1.655.432-.218.21-.47.091-.655-.432m111 168c.18-.07.366.1.655.432-.218.21-.47.091-.655-.432m-56-84c.18-.07.366.1.655.432-.218.21-.47.091-.655-.432m53 79c.18-.07.366.1.655.432-.218.21-.47.091-.655-.432m-101-153c.18-.07.366.1.655.432-.218.21-.47.091-.655-.432m97 148c.18-.07.366.1.655.432-.218.21-.47.091-.655-.432m-110-168c.18-.07.366.1.655.432-.218.21-.47.09-.655-.432m107 163c.18-.07.366.1.655.432-.218.21-.47.091-.655-.432m-88-133c.18-.07.366.1.655.432-.218.21-.47.091-.655-.432m85 128c.18-.07.366.1.655.432-.218.21-.47.091-.655-.432m-82-123c.18-.07.366.1.655.432-.218.21-.47.091-.655-.432m79 118c.18-.07.366.1.655.432-.218.21-.47.091-.655-.432m-75-113c.18-.07.366.1.655.432-.218.21-.47.091-.655-.432m71 108c.18-.07.366.1.655.432-.218.21-.47.091-.655-.432m-68-104c.18-.07.366.1.655.432-.218.21-.47.091-.655-.432M588.376 813c.586 1.149.715 2.299.907 4.017-111.883 0-223.571 0-335.721.019-2.078-2.471-1.112-3.73 1.562-3.958 1.82-.154 3.661-.076 5.493-.076 109.1-.002 218.2-.002 327.759-.002M245.292 191.252c-.2-.594-.107-.935.19-1.777 23.31-.825 46.42-1.47 69.526-1.414 65.423.16 130.847.547 196.269.972 22.61.147 45.217.668 68.413 1.221.758.39.943.56 1.144.713.037.76.074 1.52.055 2.656-5.72.377-11.385.398-17.05.374-79.11-.33-158.222-.628-237.333-1.035-12.97-.067-25.937-.857-38.906-.867-11.969-.01-23.937.656-35.908.83-2.03.03-4.072-.923-6.4-1.673m88.643 604.968c26.13-.257 52.094-.106 78.056-.264 21.424-.13 42.844-.627 64.266-.956 21.921-.337 43.843-.628 65.763-1.017 14.267-.254 28.53-.653 42.796-.976 2.191-.05 4.602-.325 4.071 3.571-33.319.757-66.584 1.05-99.849 1.44-21.78.256-43.558.69-65.338.978-27.938.37-55.877.712-83.816.932-2.407.02-6.19 1.426-5.95-3.707M588.376 754c.937 2.546.47 4.328-2.708 4-.658-.067-1.33-.005-1.995 0-42.381.333-84.762.615-127.142 1.023-21.917.21-43.831.625-65.746.987-18.588.306-37.174.669-56.223 1.026-2.559-4.163.527-3.984 3.049-4.004 8.318-.067 16.637.044 24.954-.045 27.924-.3 55.847-.63 83.77-1.001 21.6-.288 43.2-.681 64.802-.984 25.594-.359 51.188-.67 77.239-1.002m-178.441-25.78c57.572-.256 114.979-.257 172.385-.148 2.144.004 5.884-1.774 5.567 3.506-57.2.422-114.348.443-171.495.352-2.538-.004-6.446 1.572-6.457-3.71m176.705-39.187c.96 4.514-2.144 3.98-4.992 3.98-45.566-.018-91.133-.014-136.7-.012-11.308 0-22.616.01-34.386.035-1.816-2.009-1.513-3.455 1.057-3.897 1.135-.196 2.32-.134 3.482-.134 57.02.003 114.041.011 171.538.028m-.606-54.199c-15.593.386-31.186 1.071-46.78 1.08-18.424.011-36.85-.562-55.738-.846-1.805-2.764-.804-4.082 2.18-4.038 17.29.25 34.58.645 51.87.737 11.462.06 22.926-.297 34.39-.482 4.655-.075 9.31-.189 14.423-.285.492.76.53 1.521.366 2.78-.388.668-.558.853-.711 1.054m.801 37.133c.065.748.131 1.496.24 2.618-24.871.387-49.785.485-74.697.366-8.445-.04-16.898-.489-25.32-1.109-1.401-.103-2.666-2.048-4.005-3.55 34.01-.019 68.03.37 102.638.962.758.39.943.56 1.144.713m1.092 67.206c.458.57.736 1.364.96 2.49-.415-.534-.778-1.4-.96-2.49"/><path fill="#C68AFF" d="M586.817 671.744c-.184.07-.37-.1-.66-.432.222-.216.476-.099.66.432m-6-481c-.184.07-.37-.1-.66-.432.222-.216.476-.098.66.432m9 662c-.184.07-.37-.1-.66-.432.222-.216.476-.099.66.432m-3.561-217.927c-.07-.184.1-.37.432-.66.216.222.099.476-.432.66m-341.425-447.21c.158-.066.583.162.933.609-.27.04-.468-.137-.933-.609"/></svg>